<svg xmlns="http://www.w3.org/2000/svg" viewBox="0 0 1600 520" role="img" aria-labelledby="title desc">
  <title id="title">Cyber purple gamer cover placeholder</title>
  <desc id="desc">A neon city and anime gaming group inspired banner placeholder.</desc>
  <defs>
    <linearGradient id="sky" x1="0" x2="1" y1="0" y2="1">
      <stop offset="0" stop-color="#10051d"/>
      <stop offset="0.5" stop-color="#251047"/>
      <stop offset="1" stop-color="#050309"/>
    </linearGradient>
    <radialGradient id="glowA" cx="22%" cy="20%" r="46%">
      <stop offset="0" stop-color="#ff4fd8" stop-opacity=".55"/>
      <stop offset=".55" stop-color="#7c3aed" stop-opacity=".25"/>
      <stop offset="1" stop-color="#000" stop-opacity="0"/>
    </radialGradient>
    <radialGradient id="glowB" cx="78%" cy="18%" r="40%">
      <stop offset="0" stop-color="#22d3ee" stop-opacity=".4"/>
      <stop offset="1" stop-color="#000" stop-opacity="0"/>
    </radialGradient>
    <filter id="blur">
      <feGaussianBlur stdDeviation="12"/>
    </filter>
  </defs>
  <rect width="1600" height="520" fill="url(#sky)"/>
  <rect width="1600" height="520" fill="url(#glowA)"/>
  <rect width="1600" height="520" fill="url(#glowB)"/>
  <g opacity=".55">
    <path d="M0 380h1600v140H0z" fill="#050309"/>
    <g fill="#170b25">
      <rect x="48" y="150" width="90" height="260" rx="8"/>
      <rect x="170" y="90" width="130" height="330" rx="10"/>
      <rect x="350" y="125" width="105" height="300" rx="9"/>
      <rect x="1140" y="100" width="135" height="320" rx="12"/>
      <rect x="1315" y="145" width="95" height="270" rx="8"/>
      <rect x="1460" y="75" width="110" height="350" rx="10"/>
    </g>
    <g fill="#f9a8d4">
      <circle cx="92" cy="194" r="5"/><circle cx="220" cy="132" r="4"/><circle cx="405" cy="172" r="5"/>
      <circle cx="1195" cy="150" r="4"/><circle cx="1360" cy="190" r="5"/><circle cx="1518" cy="122" r="4"/>
    </g>
    <g fill="#22d3ee">
      <circle cx="118" cy="242" r="4"/><circle cx="250" cy="196" r="5"/><circle cx="383" cy="238" r="4"/>
      <circle cx="1228" cy="232" r="5"/><circle cx="1386" cy="248" r="4"/><circle cx="1495" cy="198" r="5"/>
    </g>
  </g>
  <g filter="url(#blur)" opacity=".35">
    <circle cx="760" cy="235" r="260" fill="#ec4899"/>
    <circle cx="830" cy="235" r="220" fill="#7c3aed"/>
  </g>
  <g transform="translate(170 60)">
    <g transform="translate(0 0)">
      <path d="M80 70 40 10 30 105z" fill="#1f152c"/><path d="M190 70 230 10 240 105z" fill="#1f152c"/>
      <circle cx="135" cy="180" r="125" fill="#291737"/><path d="M45 180c20-95 155-95 180 0v130H45z" fill="#0e0715"/>
      <circle cx="92" cy="185" r="14" fill="#f0abfc"/><circle cx="178" cy="185" r="14" fill="#22d3ee"/>
    </g>
    <g transform="translate(290 -5)">
      <path d="M80 70 38 10 32 112z" fill="#f0abfc"/><path d="M190 70 236 12 236 112z" fill="#f0abfc"/>
      <circle cx="135" cy="180" r="126" fill="#f9a8d4"/><path d="M35 175c22-90 175-104 205 0v135H35z" fill="#ffd1ec"/>
      <circle cx="90" cy="185" r="14" fill="#ec4899"/><circle cx="180" cy="185" r="14" fill="#f97316"/>
    </g>
    <g transform="translate(580 -12)">
      <path d="M80 70 35 12 32 112z" fill="#e5e7eb"/><path d="M190 70 235 12 238 112z" fill="#e5e7eb"/>
      <circle cx="135" cy="180" r="128" fill="#1f172a"/><path d="M35 170c25-110 175-110 205 0v140H35z" fill="#050309"/>
      <circle cx="92" cy="185" r="15" fill="#c084fc"/><circle cx="178" cy="185" r="15" fill="#67e8f9"/>
      <path d="M95 230c30 28 58 28 85 0" stroke="#f0abfc" stroke-width="8" fill="none" stroke-linecap="round"/>
    </g>
    <g transform="translate(870 4)">
      <path d="M80 70 38 8 32 108z" fill="#8b5cf6"/><path d="M190 70 236 8 238 108z" fill="#8b5cf6"/>
      <circle cx="135" cy="180" r="124" fill="#7c2d12"/><path d="M44 178c18-95 170-95 185 0v130H44z" fill="#3b123a"/>
      <circle cx="92" cy="185" r="15" fill="#34d399"/><circle cx="178" cy="185" r="15" fill="#22c55e"/>
    </g>
    <g transform="translate(1160 -2)">
      <path d="M80 70 35 5 28 122z" fill="#fdba74"/><path d="M190 70 238 5 246 122z" fill="#fdba74"/>
      <circle cx="135" cy="180" r="126" fill="#a855f7"/><path d="M40 175c20-95 170-105 190 0v135H40z" fill="#701a75"/>
      <circle cx="94" cy="186" r="15" fill="#f9a8d4"/><circle cx="178" cy="186" r="15" fill="#f472b6"/>
    </g>
  </g>
  <rect width="1600" height="520" fill="url(#sky)" opacity=".16"/>
</svg>
